<?xml version="1.0" encoding="iso-8859-1"?>
<!-- Generator: Adobe Illustrator 19.0.0, SVG Export Plug-In . SVG Version: 6.00 Build 0)  -->
<svg version="1.1" id="Layer_1" xmlns="http://www.w3.org/2000/svg" xmlns:xlink="http://www.w3.org/1999/xlink" x="0px" y="0px"
	 viewBox="0 0 503.387 503.387" style="enable-background:new 0 0 503.387 503.387;" xml:space="preserve">
<g transform="translate(5 1)">
	<path style="fill:#F2EDDA;" d="M59.637,333.427c20.48-9.387,33.28-23.04,33.28-23.04c42.667-51.2,17.067-85.333,17.067-119.467
		s25.6-59.733,59.733-59.733c51.2,0,76.8,42.667,76.8,42.667s25.6-42.667,76.8-42.667c34.133,0,59.733,25.6,59.733,59.733
		s-25.6,68.267,17.067,119.467c0,0,10.24,15.36,32.427,24.747l0,0c-20.48,4.267-39.253,6.827-58.027,6.827
		c-37.547,0-69.12-8.533-93.013-21.333c-16.213-7.68-28.16-17.92-34.987-27.307c-6.827,9.387-18.773,18.773-34.987,27.307
		c-23.893,11.947-56.32,21.333-93.867,21.333c-18.773,0-38.4-1.707-58.88-6.827L59.637,333.427z"/>
	<path style="fill:#FFD0A1;" d="M281.503,320.627c23.893,11.947,55.467,20.48,93.013,20.48v2.56V480.2
		c0-23.893-18.773-42.667-42.667-42.667c-20.48,0-37.547,14.507-41.813,34.133h-0.853c0,0-17.067,8.533-42.667,8.533
		s-42.667-8.533-42.667-8.533h-0.853c-4.267-19.627-21.333-34.133-41.813-34.133c-23.893,0-42.667,18.773-42.667,42.667V343.667
		v-2.56c37.547,0,69.973-8.533,93.867-21.333"/>
	<g>
		<path style="fill:#AAB1BA;" d="M161.183,498.12H127.05c-4.267,0-8.533-4.267-8.533-8.533v-8.533
			c0-23.893,18.773-42.667,42.667-42.667c20.48,0,37.547,14.507,41.813,34.133c0.853,2.56,0.853,5.12,0.853,8.533v8.533
			c0,4.267-3.413,8.533-8.533,8.533H161.183z M374.517,481.054v8.533c0,4.267-3.413,8.533-8.533,8.533H331.85h-34.133
			c-5.12,0-8.533-4.267-8.533-8.533v-8.533c0-2.56,0-5.973,0.853-8.533c4.267-19.627,21.333-34.133,41.813-34.133
			C355.743,438.387,374.517,457.16,374.517,481.054z"/>
		<path style="fill:#AAB1BA;" d="M272.117,216.52c0,9.387-11.093,34.133-25.6,34.133s-25.6-24.747-25.6-34.133
			c0-8.533,11.093-8.533,25.6-8.533S272.117,207.987,272.117,216.52"/>
	</g>
	<path style="fill:#FF7474;" d="M212.383,322.334L212.383,322.334v-0.853l0,0c15.36-7.68,27.307-17.92,34.987-27.307
		c7.68,9.387,19.627,19.627,34.987,27.307l-0.853,1.707l0,0c-0.853,2.56-10.24,22.187-34.133,22.187
		C220.917,344.52,212.383,322.334,212.383,322.334"/>
	<path style="fill:#AE938D;" d="M186.783,378.654c0-25.6,7.68-41.813,24.747-57.173l0.853,0.853c0,0,8.533,22.187,34.133,22.187
		c23.893,0,33.28-19.627,34.133-22.187c16.213,11.947,25.6,30.72,25.6,56.32c0,37.547-26.453,68.267-59.733,68.267
		S186.783,416.2,186.783,378.654"/>
	<path style="fill:#FFD0A1;" d="M180.81,32.2c20.48-7.68,42.667-12.8,65.707-12.8s45.227,4.267,65.707,12.8
		c17.067-12.8,64-44.373,87.893-21.333c19.627,19.627,0.853,55.467-12.8,76.8c24.747,30.72,38.4,68.267,38.4,110.933v59.733
		c0,34.133,34.133,68.267,34.133,68.267c-9.387,3.413-18.773,5.973-27.307,7.68l0,0c-22.187-9.387-32.427-24.747-32.427-24.747
		c-42.667-51.2-17.067-85.333-17.067-119.467s-25.6-59.733-59.733-59.733c-51.2,0-76.8,42.667-76.8,42.667s-25.6-42.667-76.8-42.667
		c-34.133,0-59.733,25.6-59.733,59.733s25.6,68.267-17.067,119.467c0,0-12.8,13.653-33.28,23.04v1.707
		c-8.533-1.707-17.067-4.267-25.6-7.68c0,0,34.133-34.133,34.133-68.267V198.6c0-42.667,14.507-80.213,38.4-110.933
		c-14.507-21.333-32.427-57.173-12.8-76.8C115.957-12.173,163.743,20.254,180.81,32.2"/>
</g>
<path style="fill:#51565F;" d="M370.983,503.387h-68.267c-6.827,0-12.8-5.973-12.8-12.8v-8.533c0-0.853,0-1.707,0-2.56
	c-7.68,2.56-21.333,6.827-38.4,6.827s-30.72-3.413-38.4-6.827c0,0.853,0,1.707,0,2.56v8.533c0,6.827-5.973,12.8-12.8,12.8H132.05
	c-6.827,0-12.8-5.973-12.8-12.8V371.12c0-2.56,1.707-4.267,4.267-4.267s4.267,1.707,4.267,4.267v83.627
	c8.533-11.947,22.187-19.627,38.4-19.627c21.333,0,40.107,14.507,45.227,34.987c3.413,1.707,18.773,7.68,40.107,7.68
	s36.693-5.973,40.107-7.68c5.12-20.48,23.893-34.987,45.227-34.987c16.213,0,29.867,7.68,38.4,19.627V371.12
	c0-2.56,1.707-4.267,4.267-4.267s4.267,1.707,4.267,4.267v119.467C383.783,497.414,377.81,503.387,370.983,503.387z
	 M341.117,494.854h29.867c2.56,0,4.267-1.707,4.267-4.267v-8.533c0-21.333-17.067-38.4-38.4-38.4c-21.333,0-38.4,17.067-38.4,38.4
	v8.533c0,2.56,1.707,4.267,4.267,4.267h29.867v-12.8c0-2.56,1.707-4.267,4.267-4.267s4.267,1.707,4.267,4.267V494.854z
	 M170.45,494.854h29.867c2.56,0,4.267-1.707,4.267-4.267v-8.533c0-21.333-17.067-38.4-38.4-38.4s-38.4,17.067-38.4,38.4v8.533
	c0,2.56,1.707,4.267,4.267,4.267h29.867v-12.8c0-2.56,1.707-4.267,4.267-4.267s4.267,1.707,4.267,4.267V494.854z M251.517,452.187
	c-34.987,0-64-32.427-64-72.533c0-3.413,0-5.973,0.853-9.387c0-2.56,2.56-4.267,5.12-3.413c2.56,0,4.267,2.56,3.413,5.12
	c0,2.56-0.853,5.12-0.853,7.68c0,34.987,24.747,64,55.467,64s55.467-29.013,55.467-64c0-2.56,0-5.12-0.853-7.68
	c0-2.56,1.707-4.267,3.413-5.12c2.56,0,4.267,1.707,5.12,3.413c0,2.56,0.853,5.973,0.853,9.387
	C315.517,419.76,286.503,452.187,251.517,452.187z M251.517,349.787c-23.04,0-33.28-16.213-36.693-22.187
	c-40.96,19.627-105.813,29.013-177.493,5.12c-1.707-0.853-2.56-1.707-2.56-3.413c0-1.707,0-2.56,0.853-4.267
	c0,0,33.28-33.28,33.28-64.853v-59.733c0-40.96,12.8-79.36,37.547-110.933c-16.213-25.6-30.72-59.733-11.093-79.36
	c24.747-24.747,70.827,4.267,91.307,18.773c40.96-15.36,88.747-15.36,129.707,0c20.48-15.36,66.56-44.373,91.307-18.773
	c15.36,15.36,11.947,43.52-11.093,79.36c24.747,31.573,37.547,69.973,37.547,110.933v59.733c0,31.573,32.427,64.853,33.28,64.853
	c0.853,0.853,1.707,2.56,0.853,4.267c0,1.707-1.707,2.56-2.56,3.413c-72.533,23.893-136.533,14.507-177.493-5.12
	C285.65,333.574,274.557,349.787,251.517,349.787z M222.503,323.334c2.56,5.12,11.093,17.92,29.013,17.92
	c18.773,0,27.307-13.653,29.013-17.92c-12.8-6.827-22.187-14.507-29.013-22.187C244.69,308.827,234.45,316.507,222.503,323.334z
	 M255.783,292.614c25.6,31.573,104.96,63.147,201.387,33.28c-9.387-11.093-30.72-38.4-30.72-66.56V199.6
	c0-40.107-12.8-77.653-37.547-108.373c-0.853-1.707-0.853-3.413,0-5.12c12.8-18.773,31.573-53.76,13.653-71.68
	c-18.773-18.773-58.027,4.267-75.947,17.067c16.213,6.827,30.72,16.213,44.373,28.16c1.707,1.707,1.707,4.267,0.853,5.973
	c-0.853,1.707-4.267,1.707-5.973,0.853c-31.573-26.453-71.68-41.813-113.493-41.813c-22.187,0-43.52,4.267-64,11.947h-0.853
	c-17.92,6.827-34.133,17.067-48.64,29.013c-1.707,1.707-4.267,1.707-5.973-0.853c-1.707-1.707-1.707-4.267,0.853-5.973
	c13.653-11.093,28.16-20.48,44.373-28.16c-18.773-12.8-57.173-35.84-75.947-17.067c-17.92,17.92,0.853,52.053,13.653,71.68
	c0.853,1.707,0.853,3.413,0,5.12C91.09,121.093,78.29,158.64,78.29,198.747v59.733c0,28.16-21.333,55.467-30.72,66.56
	c96.427,29.867,175.787-1.707,201.387-33.28v-37.547c-15.36-4.267-25.6-27.307-25.6-37.547c0-12.8,15.36-12.8,29.867-12.8
	c14.507,0,29.867,0,29.867,12.8c0,10.24-10.24,34.133-25.6,37.547v38.4H255.783z M251.517,213.254c-12.8,0-21.333,0-21.333,4.267
	c0,7.68,10.24,29.867,21.333,29.867c11.093,0,21.333-22.187,21.333-29.867C272.85,213.254,264.317,213.254,251.517,213.254z
	 M405.117,315.654c-0.853,0-2.56-0.853-3.413-1.707c-32.427-39.253-26.453-69.12-21.333-95.573
	c1.707-9.387,3.413-17.92,3.413-26.453c0-31.573-23.893-55.467-55.467-55.467c-47.787,0-72.533,40.107-73.387,40.96
	c-0.853,0.853-0.853,1.707-1.707,1.707c-0.853,0-0.853,0-1.707,0l0,0l0,0c-0.853,0-0.853,0-1.707,0
	c-0.853,0-1.707-0.853-1.707-1.707c0,0-24.747-40.96-73.387-40.96c-31.573,0-55.467,23.893-55.467,55.467
	c0,8.533,1.707,17.067,3.413,26.453c5.12,26.453,11.093,56.32-21.333,95.573c-1.707,1.707-4.267,1.707-5.973,0.853
	c-1.707-1.707-1.707-4.267-0.853-5.973c29.867-35.84,24.747-63.147,19.627-88.747c-1.707-9.387-3.413-18.773-3.413-28.16
	c0-36.693,27.307-64,64-64c42.667,0,67.413,27.307,76.8,39.253c9.387-11.947,34.133-39.253,76.8-39.253c36.693,0,64,27.307,64,64
	c0,9.387-1.707,18.773-3.413,28.16c-5.12,25.6-10.24,52.907,19.627,88.747c1.707,1.707,0.853,4.267-0.853,5.973
	C406.823,314.8,405.97,315.654,405.117,315.654z M341.117,196.187c-5.12,0-8.533-3.413-8.533-8.533c0-5.12,3.413-8.533,8.533-8.533
	c5.12,0,8.533,3.413,8.533,8.533C349.65,192.774,346.237,196.187,341.117,196.187z M161.917,196.187
	c-5.12,0-8.533-3.413-8.533-8.533c0-5.12,3.413-8.533,8.533-8.533s8.533,3.413,8.533,8.533
	C170.45,192.774,167.037,196.187,161.917,196.187z"/>
<g>
</g>
<g>
</g>
<g>
</g>
<g>
</g>
<g>
</g>
<g>
</g>
<g>
</g>
<g>
</g>
<g>
</g>
<g>
</g>
<g>
</g>
<g>
</g>
<g>
</g>
<g>
</g>
<g>
</g>
</svg>
